<?xml version="1.0" encoding="utf-8"?>
<!-- Generator: Adobe Illustrator 16.0.0, SVG Export Plug-In . SVG Version: 6.00 Build 0)  -->
<!DOCTYPE svg PUBLIC "-//W3C//DTD SVG 1.1//EN" "http://www.w3.org/Graphics/SVG/1.1/DTD/svg11.dtd">
<svg version="1.1" id="Calque_1" xmlns="http://www.w3.org/2000/svg" xmlns:xlink="http://www.w3.org/1999/xlink" x="0px" y="0px"
	 width="120px" height="120px" viewBox="0 0 120 120" enable-background="new 0 0 120 120" xml:space="preserve">
<path fill="#070808" d="M35.929,56.639c-0.111-0.931-0.072-1.829,0.061-2.687c0.598,0.184,1.223,0.309,1.87,0.369
	c5.174,0.48,9.765-3.401,10.254-8.67c0.49-5.269-3.307-9.93-8.48-10.411c-5.174-0.48-9.765,3.401-10.254,8.67
	c-0.306,3.294,1.063,6.351,3.397,8.297c-0.059,1.417,0.029,3.016,0.239,4.78c0.803,6.724,9.166,8.668,14.4,10.63
	C51.59,69.182,36.731,63.363,35.929,56.639z"/>
<path fill="#070808" d="M57.183,56.639c-0.111-0.93-0.072-1.828,0.061-2.687c0.598,0.184,1.223,0.31,1.87,0.369
	c5.174,0.48,9.764-3.401,10.254-8.67c0.489-5.269-3.308-9.93-8.481-10.411c-5.174-0.48-9.765,3.401-10.254,8.67
	c-0.306,3.294,1.063,6.351,3.397,8.297c-0.059,1.417,0.029,3.016,0.239,4.78c0.803,6.725,9.165,8.669,14.4,10.631
	C72.844,69.182,57.985,63.363,57.183,56.639z"/>
</svg>
